<?xml version="1.0" encoding="UTF-8" ?>
<!DOCTYPE svg PUBLIC "-//W3C//DTD SVG 1.1//EN" "http://www.w3.org/Graphics/SVG/1.1/DTD/svg11.dtd">
<svg width="228pt" height="73pt" viewBox="0 0 228 73" version="1.1" xmlns="http://www.w3.org/2000/svg">
<g id="#000000ff">
<path fill="#000000" opacity="1.00" d=" M 67.78 0.00 L 73.36 0.00 C 77.15 0.67 81.12 2.25 83.25 5.65 C 85.12 8.22 84.96 11.51 85.15 14.53 C 86.59 15.78 89.06 16.74 88.78 19.06 C 88.66 22.52 86.98 25.65 85.62 28.76 C 88.74 27.55 92.71 25.72 95.69 28.22 C 97.88 30.01 97.30 33.12 96.49 35.45 C 94.75 40.46 92.07 45.15 91.12 50.42 C 94.15 50.06 97.67 48.99 98.58 45.67 C 100.25 40.48 102.25 35.13 106.47 31.42 C 110.32 27.90 116.21 25.69 121.26 27.77 C 124.97 29.43 125.62 34.20 124.76 37.74 C 122.74 46.46 115.50 55.19 105.89 55.04 C 102.65 55.21 100.43 52.65 98.83 50.19 C 95.95 53.19 92.39 56.20 87.97 56.04 C 85.27 56.18 82.50 53.86 82.98 51.00 C 83.68 44.99 87.65 39.98 88.93 34.12 C 87.37 31.95 83.84 33.85 82.98 35.88 C 80.94 40.57 78.78 45.26 77.28 50.15 C 76.74 51.72 78.92 52.19 79.72 53.09 C 79.42 53.69 79.12 54.30 78.82 54.91 C 75.91 55.80 72.12 56.98 69.81 54.21 C 68.53 51.22 70.17 48.00 71.15 45.15 C 74.51 37.30 77.24 29.18 80.94 21.48 C 76.64 25.93 70.00 27.39 64.06 26.15 C 61.70 25.47 59.45 23.58 59.20 21.00 C 58.73 18.28 60.53 16.00 61.84 13.81 C 59.54 14.61 57.22 15.36 54.90 16.10 C 54.90 19.40 54.76 22.78 55.80 25.96 C 57.23 30.49 60.00 34.49 61.09 39.14 C 62.98 46.83 61.67 55.41 56.81 61.77 C 52.24 68.09 44.83 71.76 37.26 73.00 L 28.05 73.00 C 21.84 72.16 15.17 69.37 12.63 63.20 C 7.98 51.25 19.38 36.62 32.10 38.11 C 35.22 38.51 36.00 42.33 34.61 44.74 C 32.88 49.18 28.10 51.04 23.68 51.46 C 22.95 49.61 22.09 47.82 21.20 46.04 C 19.10 48.34 16.67 50.69 16.22 53.92 C 15.16 58.72 17.37 64.01 21.61 66.52 C 28.70 70.82 38.56 69.11 44.28 63.27 C 49.26 58.25 50.77 50.69 49.74 43.88 C 49.06 37.82 45.37 32.67 44.26 26.74 C 43.67 23.66 44.06 20.52 44.32 17.43 C 35.63 15.79 26.20 15.96 18.26 20.22 C 13.65 22.67 9.75 27.44 10.28 32.93 C 10.22 36.25 12.58 38.78 14.57 41.16 C 11.46 42.41 8.11 41.82 5.88 39.24 C 2.50 36.23 0.71 31.87 0.00 27.47 L 0.00 26.65 C 0.41 20.26 5.32 14.84 11.49 13.42 C 22.74 10.67 34.21 13.91 45.50 14.63 C 49.58 6.03 58.55 1.00 67.78 0.00 M 64.28 4.39 C 60.73 5.87 58.26 8.95 56.29 12.13 C 61.29 10.68 66.10 8.62 70.74 6.26 C 71.17 7.20 71.59 8.15 72.02 9.09 C 69.58 10.08 67.00 11.14 65.48 13.42 C 63.75 15.62 62.22 19.22 64.34 21.65 C 67.27 23.97 71.31 22.75 74.40 21.42 C 77.59 20.12 78.61 16.57 80.53 14.02 C 80.56 11.59 80.79 8.87 79.12 6.86 C 75.69 2.40 69.05 2.03 64.28 4.39 M 115.38 30.34 C 112.21 32.62 110.42 36.27 108.80 39.72 C 107.21 43.47 105.49 47.56 106.39 51.71 C 108.73 52.78 110.41 50.17 111.69 48.62 C 114.93 43.67 117.64 37.97 117.78 31.95 C 118.27 30.41 116.60 29.33 115.38 30.34 Z" />
<path fill="#000000" opacity="1.00" d=" M 162.30 15.07 C 165.38 15.16 169.79 14.05 171.52 17.41 C 172.46 21.46 170.04 25.27 168.57 28.88 C 171.30 27.68 174.50 26.09 177.47 27.47 C 179.60 28.29 180.67 30.80 180.14 32.95 C 178.95 38.98 174.98 44.12 174.28 50.27 C 177.15 50.26 180.03 49.08 181.34 46.38 C 183.81 41.85 185.72 36.96 187.13 31.99 C 186.19 31.30 185.21 30.68 184.18 30.14 C 184.72 29.07 185.27 28.00 185.83 26.93 C 189.02 26.96 194.78 26.35 194.85 30.98 C 194.35 37.09 190.64 42.34 188.99 48.16 C 187.92 50.34 190.58 50.24 191.96 49.81 C 194.06 49.05 195.74 47.28 196.12 45.04 C 198.18 37.50 202.97 29.79 210.89 27.49 C 213.37 26.58 215.99 27.08 218.44 27.80 C 221.42 27.61 224.40 27.42 227.38 27.50 C 224.51 35.01 220.81 42.23 218.70 50.01 C 222.31 50.69 224.82 48.11 227.02 45.71 C 228.15 48.58 225.85 51.05 223.86 52.80 C 221.22 54.96 217.73 56.58 214.26 55.87 C 212.34 55.48 211.43 53.67 210.33 52.27 C 207.43 54.37 204.02 56.93 200.22 55.77 C 197.82 55.25 196.72 52.95 195.65 51.01 C 192.63 53.99 188.52 56.84 184.06 55.82 C 182.03 55.52 181.09 53.64 180.10 52.10 C 177.46 54.17 174.43 56.20 170.92 56.04 C 168.24 56.16 165.50 53.84 165.97 51.00 C 166.71 45.01 170.60 39.98 171.96 34.14 C 170.41 31.95 166.81 33.84 165.94 35.88 C 164.00 40.61 161.82 45.27 160.24 50.13 C 159.50 51.84 161.86 52.18 162.82 52.88 C 162.49 53.52 162.16 54.16 161.84 54.80 C 158.96 55.98 155.05 56.96 152.77 54.15 C 151.73 51.89 152.68 49.35 153.40 47.14 C 156.72 38.59 160.32 30.14 163.58 21.57 C 164.69 19.61 162.62 18.73 161.17 18.10 C 161.55 17.09 161.92 16.08 162.30 15.07 M 207.23 37.24 C 205.04 41.53 202.18 46.23 203.81 51.21 C 206.64 50.98 210.05 50.15 211.22 47.22 C 213.49 41.71 215.53 36.11 217.81 30.61 C 212.91 28.36 209.13 33.36 207.23 37.24 Z" />
<path fill="#000000" opacity="1.00" d=" M 194.28 15.37 C 197.24 13.80 201.03 16.72 200.51 19.95 C 200.38 23.15 196.34 25.21 193.70 23.33 C 190.64 21.62 191.02 16.61 194.28 15.37 Z" />
<path fill="#000000" opacity="1.00" d=" M 129.94 26.90 C 133.36 26.85 137.57 26.62 139.15 30.40 C 142.13 28.40 145.74 25.88 149.48 27.40 C 152.66 28.34 153.85 31.96 153.56 34.98 C 153.09 39.76 150.73 44.15 147.93 47.97 C 143.98 53.27 136.75 56.62 130.29 54.11 C 129.04 57.15 127.88 60.24 127.03 63.42 C 127.74 63.72 129.16 64.31 129.87 64.61 C 129.53 65.34 129.20 66.07 128.87 66.81 C 125.99 67.99 121.88 69.00 119.79 65.94 C 118.76 62.41 120.71 59.00 121.91 55.78 C 125.04 47.84 128.68 40.08 131.33 31.96 C 130.25 31.49 129.16 31.01 128.07 30.54 C 128.70 29.33 129.32 28.11 129.94 26.90 M 138.50 34.31 C 136.42 40.11 133.91 45.75 131.60 51.46 C 136.48 53.54 140.09 48.74 142.14 45.01 C 144.31 41.00 147.22 36.28 145.16 31.64 C 142.74 31.98 140.48 32.89 138.50 34.31 Z" />
</g>
</svg>
