<?xml version="1.0" encoding="UTF-8" ?>
<!DOCTYPE svg PUBLIC "-//W3C//DTD SVG 1.1//EN" "http://www.w3.org/Graphics/SVG/1.1/DTD/svg11.dtd">
<svg width="20pt" height="19pt" viewBox="0 0 20 19" version="1.1" xmlns="http://www.w3.org/2000/svg">
<g id="#000000fe">
<path fill="#000000" opacity="1.00" d=" M 1.43 0.00 L 2.53 0.00 C 5.02 2.41 7.41 4.91 10.00 7.21 C 12.59 4.92 14.98 2.42 17.44 0.00 L 18.52 0.00 C 18.60 0.90 18.63 1.81 18.61 2.71 C 16.22 6.02 13.00 8.59 10.00 11.32 C 7.14 8.75 4.16 6.26 1.75 3.24 C 1.00 2.34 1.54 1.06 1.43 0.00 Z" />
<path fill="#000000" opacity="1.00" d=" M 0.95 7.92 C 1.44 7.90 2.43 7.85 2.92 7.83 C 5.48 9.80 7.53 12.36 10.00 14.45 C 12.47 12.36 14.52 9.80 17.08 7.83 C 17.57 7.85 18.55 7.89 19.04 7.91 C 19.05 9.08 18.66 10.08 17.89 10.91 C 15.40 13.59 12.77 16.12 10.00 18.50 C 6.95 15.74 3.74 13.06 1.28 9.75 C 1.20 9.30 1.03 8.38 0.95 7.92 Z" />
</g>
</svg>
