<?xml version="1.0" encoding="UTF-8" ?>
<!DOCTYPE svg PUBLIC "-//W3C//DTD SVG 1.1//EN" "http://www.w3.org/Graphics/SVG/1.1/DTD/svg11.dtd">
<svg width="44pt" height="44pt" viewBox="0 0 44 44" version="1.1" xmlns="http://www.w3.org/2000/svg">
<g id="#000000fc">
<path fill="#000000" opacity="1.00" d=" M 21.47 4.44 C 23.20 4.24 24.93 4.46 26.65 4.51 C 26.43 5.87 26.51 7.40 25.49 8.47 C 21.62 13.49 16.62 17.46 12.32 22.09 C 15.96 28.65 22.89 32.48 26.90 38.73 C 25.40 40.08 23.84 42.28 21.51 41.42 C 18.56 39.46 16.33 36.64 13.82 34.17 C 10.91 31.10 7.57 28.42 4.98 25.05 C 4.16 24.07 4.31 22.66 4.44 21.49 C 6.76 18.18 10.07 15.75 12.84 12.84 C 15.75 10.08 18.19 6.79 21.47 4.44 Z" />
<path fill="#000000" opacity="1.00" d=" M 32.83 8.83 C 34.99 6.77 37.04 3.49 40.50 4.36 C 40.56 5.32 40.67 7.23 40.72 8.18 C 36.98 12.92 32.16 16.63 28.14 21.11 C 26.71 22.62 28.22 24.58 29.24 25.82 C 32.89 30.08 37.40 33.52 40.92 37.91 C 40.48 38.65 39.61 40.14 39.17 40.89 C 35.88 41.09 33.94 38.18 31.83 36.17 C 28.46 32.49 24.67 29.22 21.35 25.49 C 19.98 24.18 19.72 21.74 21.32 20.49 C 25.01 16.46 29.16 12.87 32.83 8.83 Z" />
</g>
</svg>
