<?xml version="1.0" encoding="UTF-8" ?>
<!DOCTYPE svg PUBLIC "-//W3C//DTD SVG 1.1//EN" "http://www.w3.org/Graphics/SVG/1.1/DTD/svg11.dtd">
<svg width="20pt" height="19pt" viewBox="0 0 20 19" version="1.1" xmlns="http://www.w3.org/2000/svg">
<g id="#000000ff">
<path fill="#000000" opacity="1.00" d=" M 0.48 9.39 C 3.66 6.28 6.74 3.05 10.00 0.01 C 13.22 3.02 16.28 6.20 19.41 9.30 C 19.02 9.86 18.25 10.99 17.86 11.55 C 14.99 9.32 12.60 6.58 10.00 4.06 C 7.54 6.54 5.05 8.97 2.62 11.47 C 1.90 10.79 1.18 10.09 0.48 9.39 Z" />
<path fill="#000000" opacity="1.00" d=" M 0.74 17.02 C 3.02 13.18 6.95 10.46 10.00 7.18 C 13.14 10.39 16.75 13.23 19.37 16.91 C 18.97 17.33 18.17 18.15 17.78 18.56 C 14.83 16.53 12.61 13.66 10.00 11.23 C 7.34 13.61 5.23 16.66 2.15 18.51 C 1.79 18.14 1.09 17.39 0.74 17.02 Z" />
</g>
</svg>
