<?xml version="1.0" encoding="UTF-8" ?>
<!DOCTYPE svg PUBLIC "-//W3C//DTD SVG 1.1//EN" "http://www.w3.org/Graphics/SVG/1.1/DTD/svg11.dtd">
<svg width="44pt" height="44pt" viewBox="0 0 44 44" version="1.1" xmlns="http://www.w3.org/2000/svg">
<g id="#000000fc">
<path fill="#000000" opacity="1.00" d=" M 4.35 7.02 C 3.63 4.43 6.17 4.00 8.10 4.34 C 11.52 6.72 14.11 10.04 17.10 12.90 C 19.97 15.91 23.25 18.58 25.69 21.97 C 26.04 24.88 23.27 26.64 21.59 28.57 C 17.30 32.46 13.72 37.13 9.06 40.57 C 7.39 40.77 4.89 41.31 4.28 39.12 C 4.16 37.54 5.66 36.58 6.53 35.48 C 10.71 31.08 16.31 27.80 18.74 21.99 C 14.12 16.83 8.51 12.57 4.35 7.02 Z" />
<path fill="#000000" opacity="1.00" d=" M 20.46 4.27 C 24.17 3.69 26.33 7.12 28.68 9.32 C 32.36 13.43 36.83 16.79 40.19 21.17 C 41.92 23.68 39.31 26.00 37.67 27.69 C 33.72 31.43 30.06 35.45 26.09 39.16 C 24.67 40.59 22.17 41.68 20.46 40.08 C 19.99 38.67 20.30 37.48 21.39 36.52 C 24.87 32.65 29.03 29.43 32.30 25.37 C 33.49 24.07 34.07 21.77 32.45 20.55 C 28.41 16.41 24.12 12.53 20.21 8.25 C 20.27 7.25 20.40 5.26 20.46 4.27 Z" />
</g>
</svg>
