<?xml version="1.0" encoding="UTF-8" ?>
<!DOCTYPE svg PUBLIC "-//W3C//DTD SVG 1.1//EN" "http://www.w3.org/Graphics/SVG/1.1/DTD/svg11.dtd">
<svg width="42pt" height="45pt" viewBox="0 0 42 45" version="1.1" xmlns="http://www.w3.org/2000/svg">
<g id="#000000ff">
<path fill="#000000" opacity="1.00" d=" M 12.39 0.00 L 29.23 0.00 C 26.26 4.48 25.97 10.67 28.70 15.33 C 32.18 21.49 35.75 27.60 39.22 33.76 C 40.33 35.95 41.78 38.32 41.27 40.88 C 40.81 43.04 38.56 43.97 36.86 45.00 L 4.07 45.00 C 2.60 43.53 0.17 42.39 0.23 39.99 C 0.19 37.63 1.48 35.54 2.53 33.52 C 6.08 27.41 9.73 21.36 13.27 15.24 C 16.09 10.60 15.81 4.26 12.39 0.00 M 18.03 2.96 C 17.99 6.25 18.19 9.56 17.77 12.83 C 15.38 18.11 11.86 22.79 9.16 27.92 C 16.85 27.98 24.53 28.03 32.22 27.90 C 29.92 22.69 26.40 18.11 24.23 12.86 C 23.81 9.58 24.01 6.26 23.97 2.96 C 21.99 3.04 20.01 3.04 18.03 2.96 Z" />
</g>
</svg>
