<?xml version="1.0" encoding="UTF-8" ?>
<!DOCTYPE svg PUBLIC "-//W3C//DTD SVG 1.1//EN" "http://www.w3.org/Graphics/SVG/1.1/DTD/svg11.dtd">
<svg width="39pt" height="32pt" viewBox="0 0 39 32" version="1.1" xmlns="http://www.w3.org/2000/svg">
<g id="#000000ff">
<path fill="#000000" opacity="1.00" d=" M 13.44 0.00 L 25.38 0.00 C 26.67 1.40 27.59 3.06 28.33 4.81 C 31.90 4.82 35.64 4.28 39.00 5.83 L 39.00 29.55 C 37.57 31.35 35.13 31.03 33.09 31.12 C 23.72 31.03 14.35 31.03 4.98 31.13 C 3.23 31.25 1.58 30.65 0.00 29.98 L 0.00 6.40 C 2.75 3.57 7.18 5.16 10.69 4.79 C 11.49 3.13 12.32 1.48 13.44 0.00 M 17.43 7.55 C 9.70 8.64 5.89 19.04 11.27 24.77 C 16.29 31.19 27.83 28.89 29.86 20.95 C 32.43 13.57 24.88 5.73 17.43 7.55 M 32.00 9.94 C 32.00 10.45 32.00 11.49 32.00 12.01 C 33.66 11.98 35.33 11.98 37.00 12.01 C 37.00 11.51 37.00 10.52 37.00 10.02 C 35.33 10.00 33.67 9.97 32.00 9.94 Z" />
<path fill="#000000" opacity="1.00" d=" M 17.37 10.48 C 21.78 9.10 26.93 12.35 27.36 17.00 C 28.05 21.34 24.30 25.57 19.97 25.67 C 15.69 26.05 11.55 22.35 11.62 18.03 C 11.52 14.57 14.07 11.35 17.37 10.48 Z" />
</g>
</svg>
