<?xml version="1.0" encoding="UTF-8" ?>
<!DOCTYPE svg PUBLIC "-//W3C//DTD SVG 1.1//EN" "http://www.w3.org/Graphics/SVG/1.1/DTD/svg11.dtd">
<svg width="45pt" height="36pt" viewBox="0 0 45 36" version="1.1" xmlns="http://www.w3.org/2000/svg">
<g id="#000000ff">
<path fill="#000000" opacity="1.00" d=" M 1.68 0.00 L 29.20 0.00 C 31.59 1.99 30.91 5.26 31.11 8.00 C 33.75 8.00 36.40 8.00 39.04 8.00 C 41.01 11.70 43.12 15.33 45.00 19.07 L 45.00 27.01 C 43.80 27.00 42.61 26.99 41.41 26.98 C 41.55 28.58 41.78 30.20 41.63 31.81 C 41.26 33.91 39.21 34.99 37.57 36.00 L 36.18 36.00 C 34.50 35.56 32.59 35.09 31.62 33.51 C 30.22 31.59 31.06 29.13 31.15 26.98 C 26.26 27.01 21.37 27.00 16.48 26.99 C 17.16 30.59 16.33 34.63 12.48 36.00 L 10.27 36.00 C 6.20 35.13 4.82 30.92 6.03 27.27 C 3.84 27.06 1.66 26.56 0.00 25.03 L 0.00 1.64 C 1.39 1.94 1.95 1.39 1.68 0.00 M 31.05 11.08 C 31.06 13.39 31.06 15.69 31.06 18.00 C 34.02 18.00 36.99 18.00 39.95 18.00 C 38.65 15.66 37.34 13.32 36.03 10.98 C 34.37 11.01 32.71 11.05 31.05 11.08 Z" />
</g>
</svg>
