<?xml version="1.0" encoding="UTF-8" ?>
<!DOCTYPE svg PUBLIC "-//W3C//DTD SVG 1.1//EN" "http://www.w3.org/Graphics/SVG/1.1/DTD/svg11.dtd">
<svg width="34pt" height="30pt" viewBox="0 0 34 30" version="1.1" xmlns="http://www.w3.org/2000/svg">
<g id="#000000ff">
<path fill="#000000" opacity="1.00" d=" M 1.73 7.63 C 6.32 -1.09 20.24 -1.66 26.13 5.98 C 29.00 9.56 28.58 15.11 25.33 18.31 C 22.05 21.90 17.01 22.92 12.33 22.75 C 9.47 25.19 5.82 26.17 2.11 26.17 C 3.89 24.66 5.85 23.07 6.06 20.56 C 1.95 17.84 -0.78 12.34 1.73 7.63 Z" />
<path fill="#000000" opacity="1.00" d=" M 30.62 10.71 C 32.00 12.93 33.90 15.19 33.51 18.00 C 33.39 21.09 31.01 23.26 28.86 25.15 C 29.62 26.93 30.49 28.72 31.99 30.00 L 31.47 30.00 C 27.69 29.86 24.73 26.96 20.99 26.73 C 18.75 26.64 16.62 25.92 14.53 25.18 C 19.22 24.48 24.22 23.18 27.33 19.31 C 29.54 16.98 29.99 13.72 30.62 10.71 Z" />
</g>
</svg>
