<?xml version="1.0" encoding="UTF-8" ?>
<!DOCTYPE svg PUBLIC "-//W3C//DTD SVG 1.1//EN" "http://www.w3.org/Graphics/SVG/1.1/DTD/svg11.dtd">
<svg width="30pt" height="34pt" viewBox="0 0 30 34" version="1.1" xmlns="http://www.w3.org/2000/svg">
<g id="#000000fe">
<path fill="#000000" opacity="1.00" d=" M 3.42 1.50 C 6.08 -0.43 9.34 0.90 11.74 2.55 C 7.53 3.94 3.86 6.42 0.94 9.75 C 0.36 6.81 0.48 3.17 3.42 1.50 Z" />
<path fill="#000000" opacity="1.00" d=" M 18.12 2.54 C 20.55 0.87 23.85 -0.45 26.51 1.57 C 29.38 3.28 29.45 6.85 28.86 9.75 C 25.96 6.43 22.31 3.94 18.12 2.54 Z" />
<path fill="#000000" opacity="1.00" d=" M 11.23 5.10 C 18.87 2.83 27.54 8.23 28.93 16.05 C 30.58 23.12 25.89 30.81 18.90 32.68 C 11.28 35.15 2.40 29.84 0.92 21.99 C -0.85 14.77 4.04 6.85 11.23 5.10 M 10.35 8.38 C 4.93 10.60 1.97 17.29 4.07 22.78 C 6.03 28.87 13.64 32.22 19.45 29.48 C 25.12 27.26 28.01 20.11 25.53 14.56 C 23.35 8.73 15.98 5.77 10.35 8.38 Z" />
<path fill="#000000" opacity="1.00" d=" M 12.89 11.00 C 13.43 11.00 14.51 11.00 15.05 11.00 C 15.06 13.64 15.06 16.29 15.06 18.93 C 17.06 18.93 19.06 18.94 21.06 18.94 C 21.06 19.45 21.06 20.49 21.06 21.00 C 18.34 21.00 15.61 21.00 12.89 21.00 C 12.88 17.67 12.88 14.33 12.89 11.00 Z" />
</g>
</svg>
