<?xml version="1.0" encoding="UTF-8" ?>
<!DOCTYPE svg PUBLIC "-//W3C//DTD SVG 1.1//EN" "http://www.w3.org/Graphics/SVG/1.1/DTD/svg11.dtd">
<svg width="43pt" height="40pt" viewBox="0 0 43 40" version="1.1" xmlns="http://www.w3.org/2000/svg">
<g id="#000000ff">
<path fill="#000000" opacity="1.00" d=" M 17.46 0.00 L 25.06 0.00 C 25.50 2.02 25.83 4.07 26.15 6.11 C 28.90 6.89 30.90 4.51 33.01 3.21 C 34.82 4.97 36.59 6.76 38.36 8.56 C 37.24 10.09 36.10 11.59 34.99 13.12 C 35.20 13.66 35.61 14.75 35.82 15.29 C 37.87 15.66 39.93 15.98 41.98 16.35 C 42.01 18.81 42.07 21.28 42.06 23.75 C 39.97 24.07 37.88 24.39 35.80 24.72 C 35.59 25.24 35.17 26.28 34.96 26.81 C 36.09 28.35 37.22 29.89 38.36 31.43 C 36.59 33.24 34.81 35.03 33.01 36.79 C 30.87 35.74 28.84 32.52 26.27 34.16 C 25.70 36.07 25.44 38.05 25.03 40.00 L 17.46 40.00 C 17.15 38.10 16.84 36.20 16.53 34.30 C 15.97 34.09 14.86 33.67 14.31 33.45 C 12.74 34.57 11.18 35.70 9.62 36.81 C 7.79 35.04 5.99 33.25 4.20 31.44 C 5.35 29.89 6.50 28.34 7.65 26.79 C 7.40 26.25 6.89 25.17 6.64 24.63 C 4.74 24.35 2.85 24.07 0.95 23.78 C 0.95 21.27 0.95 18.77 0.96 16.27 C 3.41 15.67 6.69 16.17 7.84 13.36 C 6.61 11.77 5.39 10.16 4.19 8.54 C 5.98 6.73 7.80 4.94 9.63 3.17 C 11.18 4.28 12.71 5.40 14.26 6.51 C 14.82 6.31 15.95 5.91 16.51 5.71 C 16.82 3.81 17.14 1.90 17.46 0.00 M 19.32 15.39 C 15.87 16.60 15.12 21.74 18.09 23.88 C 20.83 26.27 25.65 24.59 26.28 21.00 C 27.23 17.20 22.82 13.70 19.32 15.39 Z" />
</g>
</svg>
