<?xml version="1.0" encoding="UTF-8" ?>
<!DOCTYPE svg PUBLIC "-//W3C//DTD SVG 1.1//EN" "http://www.w3.org/Graphics/SVG/1.1/DTD/svg11.dtd">
<svg width="44pt" height="46pt" viewBox="0 0 44 46" version="1.1" xmlns="http://www.w3.org/2000/svg">
<g id="#000000ff">
<path fill="#000000" opacity="1.00" d=" M 17.84 0.00 L 26.20 0.00 C 26.19 6.28 33.38 10.89 38.95 7.61 C 40.38 10.07 41.82 12.53 43.14 15.05 C 37.84 18.39 37.70 26.79 43.14 30.06 C 41.80 32.59 40.36 35.07 38.93 37.55 C 33.40 34.36 26.22 38.79 26.17 45.04 C 23.36 45.10 20.55 45.09 17.74 45.04 C 17.72 38.80 10.55 34.32 5.03 37.53 C 3.58 35.08 2.17 32.62 0.83 30.11 C 6.14 26.71 6.20 18.40 0.84 15.02 C 2.16 12.51 3.58 10.04 5.02 7.59 C 10.62 10.85 17.77 6.27 17.84 0.00 M 18.22 14.30 C 14.18 16.18 12.03 21.24 13.54 25.44 C 14.82 29.80 19.83 32.66 24.21 31.35 C 28.94 30.25 31.90 24.93 30.63 20.30 C 29.50 15.04 23.07 11.77 18.22 14.30 Z" />
</g>
</svg>
