<?xml version="1.0" encoding="UTF-8" ?>
<!DOCTYPE svg PUBLIC "-//W3C//DTD SVG 1.1//EN" "http://www.w3.org/Graphics/SVG/1.1/DTD/svg11.dtd">
<svg width="44pt" height="44pt" viewBox="0 0 44 44" version="1.1" xmlns="http://www.w3.org/2000/svg">
<g id="#000000ff">
<path fill="#000000" opacity="1.00" d=" M 5.85 0.00 L 39.09 0.00 C 40.04 8.19 41.04 16.37 41.96 24.56 C 41.15 24.65 39.54 24.82 38.74 24.91 C 37.86 17.61 37.02 10.31 36.14 3.01 C 27.02 2.99 17.90 2.99 8.78 3.01 C 7.91 10.31 7.08 17.61 6.19 24.90 C 5.39 24.82 3.78 24.64 2.97 24.56 C 3.88 16.37 4.89 8.19 5.85 0.00 Z" />
<path fill="#000000" opacity="1.00" d=" M 12.00 4.94 C 19.00 4.93 25.99 4.93 32.98 4.94 C 32.99 5.70 33.00 7.23 33.01 7.99 C 26.01 7.96 19.01 8.11 12.00 8.06 C 12.00 7.28 12.00 5.72 12.00 4.94 Z" />
<path fill="#000000" opacity="1.00" d=" M 12.00 11.01 C 19.02 11.00 26.03 10.99 33.05 11.01 C 33.03 11.75 33.00 13.25 32.98 14.00 C 25.99 14.00 18.99 14.00 12.00 14.00 C 12.00 13.25 12.00 11.75 12.00 11.01 Z" />
<path fill="#000000" opacity="1.00" d=" M 12.00 17.00 C 19.00 17.00 26.00 17.00 33.00 17.00 C 33.00 17.75 33.00 19.25 33.00 20.00 C 26.00 19.96 19.00 20.07 12.01 20.06 C 12.00 19.30 12.00 17.77 12.00 17.00 Z" />
<path fill="#000000" opacity="1.00" d=" M 11.94 22.01 C 18.95 21.99 25.97 22.00 32.98 22.00 C 33.00 22.77 33.03 24.30 33.04 25.06 C 26.04 25.05 19.03 24.97 12.02 25.00 C 12.00 24.25 11.96 22.75 11.94 22.01 Z" />
<path fill="#000000" opacity="1.00" d=" M 0.78 28.13 C 15.18 27.91 29.59 27.92 44.00 28.14 L 44.00 29.26 C 42.23 34.18 40.88 39.27 38.61 44.00 L 6.55 44.00 C 3.72 39.12 2.47 33.48 0.78 28.13 M 17.03 30.00 C 17.00 30.75 16.96 32.25 16.94 32.99 C 20.63 33.00 24.31 33.00 28.00 33.00 C 28.00 32.25 28.00 30.75 28.00 30.00 C 24.34 30.00 20.68 30.00 17.03 30.00 Z" />
</g>
</svg>
