<?xml version="1.0" encoding="UTF-8" ?>
<!DOCTYPE svg PUBLIC "-//W3C//DTD SVG 1.1//EN" "http://www.w3.org/Graphics/SVG/1.1/DTD/svg11.dtd">
<svg width="39pt" height="39pt" viewBox="0 0 39 39" version="1.1" xmlns="http://www.w3.org/2000/svg">
<g id="#000000ff">
<path fill="#000000" opacity="1.00" d=" M 30.33 0.00 L 30.35 0.00 C 33.35 2.66 35.80 5.97 39.00 8.35 L 39.00 8.60 C 37.99 9.19 37.05 9.89 36.20 10.71 C 33.48 7.85 30.59 5.16 27.92 2.26 C 28.71 1.50 29.52 0.74 30.33 0.00 Z" />
<path fill="#000000" opacity="1.00" d=" M 12.35 6.07 C 16.64 5.46 20.98 5.29 25.28 4.72 C 28.32 7.36 31.02 10.36 33.91 13.15 C 33.49 17.56 33.24 22.00 32.61 26.40 C 23.24 27.01 15.11 32.39 7.55 37.48 C 6.27 38.79 5.11 37.24 4.34 36.27 C 7.76 33.05 11.02 29.67 14.35 26.36 C 17.81 27.36 21.33 23.23 18.58 20.33 C 15.90 17.38 11.48 20.53 12.26 24.09 C 9.42 27.79 5.63 30.69 2.58 34.23 C 1.78 33.66 1.01 33.03 0.29 32.36 C 5.88 24.52 11.55 15.93 12.35 6.07 Z" />
</g>
</svg>
