<?xml version="1.0" encoding="UTF-8" ?>
<!DOCTYPE svg PUBLIC "-//W3C//DTD SVG 1.1//EN" "http://www.w3.org/Graphics/SVG/1.1/DTD/svg11.dtd">
<svg width="45pt" height="42pt" viewBox="0 0 45 42" version="1.1" xmlns="http://www.w3.org/2000/svg">
<g id="#000000ff">
<path fill="#000000" opacity="1.00" d=" M 19.25 0.00 L 32.96 0.00 C 28.51 4.54 23.99 9.02 19.60 13.62 C 22.12 16.25 24.78 18.76 27.29 21.40 C 28.48 20.57 30.18 19.03 31.46 20.68 C 35.99 25.20 40.60 29.66 45.00 34.31 L 45.00 35.57 C 43.10 37.90 40.88 39.96 38.68 42.00 L 37.47 42.00 C 32.63 37.68 28.22 32.89 23.59 28.33 C 22.10 27.06 23.63 25.41 24.43 24.28 C 21.79 21.76 19.27 19.11 16.65 16.57 C 13.61 19.42 10.79 22.49 7.77 25.35 C 5.45 23.08 3.04 20.87 0.94 18.40 C 3.80 15.57 6.67 12.76 9.47 9.88 C 9.08 8.62 8.92 7.33 8.99 6.01 C 10.33 5.90 11.64 6.03 12.93 6.39 C 15.10 4.32 17.10 2.09 19.25 0.00 Z" />
</g>
</svg>
