<?xml version="1.0" encoding="UTF-8" ?>
<!DOCTYPE svg PUBLIC "-//W3C//DTD SVG 1.1//EN" "http://www.w3.org/Graphics/SVG/1.1/DTD/svg11.dtd">
<svg width="34pt" height="29pt" viewBox="0 0 34 29" version="1.1" xmlns="http://www.w3.org/2000/svg">
<g id="#000000ff">
<path fill="#000000" opacity="1.00" d=" M 0.00 17.04 C 5.68 11.51 11.02 5.62 16.95 0.35 C 18.92 2.20 20.86 4.08 22.75 6.01 C 22.93 4.33 23.10 2.66 23.28 0.99 C 24.79 1.00 26.31 1.01 27.83 1.02 C 28.08 4.51 27.59 8.12 28.48 11.53 C 30.04 13.64 32.15 15.25 34.00 17.09 L 34.00 17.80 C 32.70 17.94 31.39 18.07 30.09 18.21 C 29.97 21.80 29.93 25.40 29.96 29.00 L 19.10 29.00 C 19.04 26.66 18.97 24.33 18.89 21.99 C 17.63 22.00 16.37 22.00 15.11 22.00 C 15.01 24.33 14.91 26.67 14.81 29.00 L 4.07 29.00 C 4.11 25.41 4.06 21.82 3.93 18.23 C 2.62 18.07 1.31 17.92 0.00 17.76 L 0.00 17.04 Z" />
</g>
</svg>
