<?xml version="1.0" encoding="UTF-8" ?>
<!DOCTYPE svg PUBLIC "-//W3C//DTD SVG 1.1//EN" "http://www.w3.org/Graphics/SVG/1.1/DTD/svg11.dtd">
<svg width="33pt" height="33pt" viewBox="0 0 33 33" version="1.1" xmlns="http://www.w3.org/2000/svg">
<g id="#000000ff">
<path fill="#000000" opacity="1.00" d=" M 0.87 14.97 C 1.49 6.23 10.26 -0.77 18.93 0.61 C 26.23 1.38 32.03 7.68 33.00 14.83 L 33.00 17.99 C 32.21 26.32 24.50 33.28 16.05 32.63 C 7.16 32.43 -0.28 23.79 0.87 14.97 M 11.43 3.40 C 12.18 5.23 12.93 7.05 13.70 8.87 C 15.81 8.62 17.93 8.60 20.04 8.86 C 20.81 7.07 21.56 5.27 22.31 3.48 C 18.77 2.23 15.00 2.30 11.43 3.40 M 14.13 11.20 C 10.17 13.00 9.71 19.09 13.35 21.46 C 16.97 24.34 22.91 21.43 22.89 16.83 C 23.28 12.41 18.00 8.98 14.13 11.20 M 3.69 22.00 C 5.53 21.26 7.36 20.51 9.20 19.76 C 8.93 17.64 8.94 15.51 9.18 13.39 C 7.36 12.62 5.53 11.87 3.70 11.13 C 2.60 14.69 2.60 18.43 3.69 22.00 M 24.58 13.27 C 24.77 15.44 24.77 17.62 24.58 19.79 C 26.40 20.52 28.22 21.27 30.05 21.99 C 31.14 18.46 31.10 14.74 30.14 11.19 C 28.29 11.88 26.45 12.60 24.58 13.27 M 13.64 24.25 C 12.91 26.10 12.17 27.95 11.46 29.81 C 15.03 30.82 18.76 30.83 22.31 29.76 C 21.57 27.91 20.81 26.08 20.04 24.24 C 17.92 24.53 15.77 24.51 13.64 24.25 Z" />
</g>
</svg>
