<?xml version="1.0" encoding="UTF-8" ?>
<!DOCTYPE svg PUBLIC "-//W3C//DTD SVG 1.1//EN" "http://www.w3.org/Graphics/SVG/1.1/DTD/svg11.dtd">
<svg width="29pt" height="30pt" viewBox="0 0 29 30" version="1.1" xmlns="http://www.w3.org/2000/svg">
<g id="#000000ff">
<path fill="#000000" opacity="1.00" d=" M 21.53 0.00 L 21.58 0.00 C 25.81 2.64 22.65 7.77 20.93 11.00 C 23.26 11.52 27.74 9.54 28.17 13.04 C 28.64 14.89 26.69 16.36 27.46 18.18 C 28.12 20.16 26.27 21.60 25.92 23.36 C 25.74 26.14 23.38 27.98 21.74 30.00 L 17.81 30.00 C 14.28 29.72 11.38 27.32 7.82 27.12 C 5.95 28.61 1.92 28.67 1.08 25.95 C 0.93 21.67 0.75 17.35 1.13 13.09 C 1.84 10.70 4.43 10.82 6.45 11.00 C 6.78 11.27 7.46 11.80 7.80 12.07 C 13.64 10.01 19.70 6.31 21.53 0.00 M 5.04 12.31 C 4.96 17.21 5.00 22.10 5.02 26.99 C 5.53 27.00 6.54 27.00 7.04 27.00 C 7.03 22.12 6.98 17.23 6.99 12.35 C 6.50 12.34 5.53 12.32 5.04 12.31 Z" />
</g>
</svg>
