<?xml version="1.0" encoding="UTF-8" ?>
<!DOCTYPE svg PUBLIC "-//W3C//DTD SVG 1.1//EN" "http://www.w3.org/Graphics/SVG/1.1/DTD/svg11.dtd">
<svg width="40pt" height="42pt" viewBox="0 0 40 42" version="1.1" xmlns="http://www.w3.org/2000/svg">
<g id="#000000ff">
<path fill="#000000" opacity="1.00" d=" M 18.73 0.00 L 20.92 0.00 C 24.71 0.71 27.20 5.27 24.74 8.58 C 22.41 12.41 15.92 11.32 14.95 6.95 C 13.93 3.92 16.23 1.33 18.73 0.00 Z" />
<path fill="#000000" opacity="1.00" d=" M 29.40 5.41 C 33.09 3.36 38.00 6.89 37.25 11.04 C 36.88 15.12 31.46 17.28 28.39 14.56 C 25.29 12.27 25.91 6.98 29.40 5.41 Z" />
<path fill="#000000" opacity="1.00" d=" M 7.36 6.40 C 10.09 5.40 13.20 8.01 12.68 10.87 C 12.40 14.07 7.99 15.65 5.78 13.27 C 3.52 11.30 4.49 7.19 7.36 6.40 Z" />
<path fill="#000000" opacity="1.00" d=" M 2.26 19.23 C 4.21 17.99 7.12 19.70 6.87 22.01 C 6.97 24.19 4.22 25.79 2.37 24.61 C 0.20 23.63 0.27 20.36 2.26 19.23 Z" />
<path fill="#000000" opacity="1.00" d=" M 35.40 19.49 C 37.49 18.26 40.21 20.69 39.20 22.90 C 38.71 24.55 36.40 25.21 35.11 24.13 C 33.31 23.18 33.63 20.28 35.40 19.49 Z" />
<path fill="#000000" opacity="1.00" d=" M 7.22 31.20 C 10.25 29.10 13.20 34.44 9.88 35.98 C 6.88 37.69 4.21 32.79 7.22 31.20 Z" />
<path fill="#000000" opacity="1.00" d=" M 30.29 31.29 C 33.32 28.86 36.61 34.70 32.92 35.99 C 30.06 37.58 27.50 32.87 30.29 31.29 Z" />
<path fill="#000000" opacity="1.00" d=" M 18.31 36.34 C 20.67 33.82 24.70 37.82 22.23 40.18 C 19.90 42.94 15.56 38.80 18.31 36.34 Z" />
</g>
</svg>
