<?xml version="1.0" encoding="UTF-8" ?>
<!DOCTYPE svg PUBLIC "-//W3C//DTD SVG 1.1//EN" "http://www.w3.org/Graphics/SVG/1.1/DTD/svg11.dtd">
<svg width="33pt" height="32pt" viewBox="0 0 33 32" version="1.1" xmlns="http://www.w3.org/2000/svg">
<g id="#000000ff">
<path fill="#000000" opacity="1.00" d=" M 6.37 0.00 L 7.72 0.00 C 9.77 2.09 12.77 3.91 13.17 7.04 C 13.64 10.00 10.23 10.91 8.53 12.58 C 10.38 17.07 14.03 20.69 18.09 23.22 C 21.22 24.74 22.56 20.64 24.15 18.78 C 27.88 19.35 31.31 22.33 32.30 25.96 C 30.89 28.61 28.27 30.26 25.93 32.00 L 24.81 32.00 C 21.15 31.12 17.65 29.62 14.45 27.64 C 6.93 23.29 2.13 15.15 0.48 6.78 C 2.17 4.30 4.30 2.17 6.37 0.00 Z" />
</g>
</svg>
