<?xml version="1.0" encoding="UTF-8" ?>
<!DOCTYPE svg PUBLIC "-//W3C//DTD SVG 1.1//EN" "http://www.w3.org/Graphics/SVG/1.1/DTD/svg11.dtd">
<svg width="40pt" height="36pt" viewBox="0 0 40 36" version="1.1" xmlns="http://www.w3.org/2000/svg">
<g id="#000000ff">
<path fill="#000000" opacity="1.00" d=" M 6.10 0.00 L 39.13 0.00 C 37.04 9.88 35.36 19.86 32.98 29.67 C 27.20 31.43 21.48 33.38 15.77 35.35 C 10.55 33.54 5.43 31.48 0.28 29.49 C 0.64 26.96 1.07 24.43 1.62 21.94 C 3.77 21.99 5.92 22.02 8.08 22.01 C 7.99 22.74 7.82 24.21 7.74 24.94 C 10.80 26.12 13.87 27.30 16.94 28.45 C 20.51 27.26 24.11 26.13 27.64 24.85 C 28.20 22.23 28.78 19.62 29.34 17.00 C 20.44 16.85 11.54 16.98 2.63 16.92 C 3.04 14.95 3.46 12.98 3.90 11.01 C 12.68 11.03 21.47 10.92 30.25 11.07 C 30.71 9.40 31.12 7.71 31.44 6.01 C 22.62 5.98 13.80 6.02 4.99 5.99 C 5.34 3.99 5.64 1.98 6.10 0.00 Z" />
</g>
</svg>
